# xmcd
#
# Track frame offsets: 
#        150
#        14544
#        32948
#        43839
#        59447
#        73842
#        93461
#        109586
#        125355
#        152357
#
# Disc length: 3326 seconds
#
# Revision: 0
# Processed by: cddbd v1.5.2PL0 Copyright (c) Steve Scherf et al.
# Submitted via: ExactAudioCopy v0.95a5
#
DISCID=850cfc0a
DTITLE=Zbigniew Zak - Kamienne Lustraq
DYEAR=2007
DGENRE=Bluesq
TTITLE0=Kwiaty umieraja w dloniach
TTITLE1=Byc na szczycie
TTITLE2=Foxy
TTITLE3=Kamienne lustra
TTITLE4=Rockman
TTITLE5=Samotnosc w deszczu
TTITLE6=Jimi H
TTITLE7=Za pozno
TTITLE8=Zaklocenie porzadku
TTITLE9=date
EXTD=
EXTT0=
EXTT1=
EXTT2=
EXTT3=
EXTT4=
EXTT5=
EXTT6=
EXTT7=
EXTT8=
EXTT9=
PLAYORDER=
